HIERARCHY
ROOT Spine
{
    OFFSET 0.0 0.0 -0.0
    CHANNELS 6 Xposition Yposition Zposition Zrotation Xrotation Yrotation
    JOINT ShoulderCenter
    {
        OFFSET 0.0 28.43004608154297 0.0
        CHANNELS 3 Zrotation Xrotation Yrotation
        JOINT LeftShoulder
        {
            OFFSET 18.397415161132812 0.0 0.0
            CHANNELS 3 Zrotation Xrotation Yrotation
            JOINT LeftElbow
            {
                OFFSET 29.94125747680664 0.0 0.0
                CHANNELS 3 Zrotation Xrotation Yrotation
                JOINT LeftHand
                {
                    OFFSET 31.694618225097656 0.0 0.0
                    CHANNELS 3 Zrotation Xrotation Yrotation
                    End Site
                    {
                        OFFSET 12.677848815917969 0.0 0.0
                    }
                }
            }
        }
        JOINT RightShoulder
        {
            OFFSET -18.397415161132812 0.0 0.0
            CHANNELS 3 Zrotation Xrotation Yrotation
            JOINT RightElbow
            {
                OFFSET -29.94125747680664 0.0 0.0
                CHANNELS 3 Zrotation Xrotation Yrotation
                JOINT RightHand
                {
                    OFFSET -31.694618225097656 0.0 0.0
                    CHANNELS 3 Zrotation Xrotation Yrotation
                    End Site
                    {
                        OFFSET -12.677848815917969 0.0 0.0
                    }
                }
            }
        }
        End Site
        {
            OFFSET 0.0 11.372017860412598 0.0
        }
    }
    JOINT LeftHip
    {
        OFFSET 15.818463471566387 -15.818463471566387 0.0
        CHANNELS 3 Zrotation Xrotation Yrotation
        JOINT LeftKnee
        {
            OFFSET 0.0 -39.31314468383789 0.0
            CHANNELS 3 Zrotation Xrotation Yrotation
            JOINT LeftFoot
            {
                OFFSET 0.0 -44.555747985839844 0.0
                CHANNELS 3 Zrotation Xrotation Yrotation
                End Site
                {
                    OFFSET 0.0 0.0 17.822301864624023
                }
            }
        }
    }
    JOINT RightHip
    {
        OFFSET -15.818463471566387 -15.818463471566387 0.0
        CHANNELS 3 Zrotation Xrotation Yrotation
        JOINT RightKnee
        {
            OFFSET 0.0 -39.31314468383789 0.0
            CHANNELS 3 Zrotation Xrotation Yrotation
            JOINT RightFoot
            {
                OFFSET 0.0 -44.555747985839844 0.0
                CHANNELS 3 Zrotation Xrotation Yrotation
                End Site
                {
                    OFFSET 0.0 0.0 17.822301864624023
                }
            }
        }
    }
}
MOTION
Frames: 7
Frame Time: 0.03333333333333333
5.0 8.600000381469727 50.099998474121094 2.44530902979946 -4.4725925921521394 -0.5458928895302501 4.4976895760051626e-08 4.323848300098763e-09 -3.4859964884422605 108.32732651913861 -1.7300934725027395 -126.96768911916263 1.6636646037185364e-06 2.0995246896425914e-06 52.59027839021392 6.3611093629270335e-15 -3.1805546814635168e-15 1.7655625192200634e-31 -99.7538991049088 -10.008531154503858 132.68634373277163 -1.8165699286144304e-06 1.8081934751091729e-06 -50.64650671671123 0.0 0.0 -6.3611093629270335e-15 1.0030655822944248 12.920866357277706 -41.049224879749204 9.802543394539732 -10.468685603843104 38.98821370001103 -7.951386703658791e-16 7.951386703658791e-16 4.2241741863187325e-16 -4.754534404400317 6.21863317494512 13.93452349006427 -4.775229187460969 -5.239436884039707 -9.693210926382676 1.077613842297402e-35 -2.4848083448933725e-17 4.969616689786745e-17
5.0 8.600000381469727 50.30000305175781 2.233809289590956 -4.6592178838041125 -0.8345805059493767 -1.2029079842545463e-07 -4.118883937298266e-07 -3.476970119749601 103.57096104276381 -0.7087642076127981 -129.62735794004587 1.6810614206692131e-06 -2.012066098034602e-06 53.93285760739852 6.3611093629270335e-15 3.1805546814635168e-15 -1.7655625192200634e-31 -104.30813373790174 -10.701211854454113 130.11443498442128 -4.389502334035523e-07 -3.463620967488038e-07 -51.110196627177 0.0 0.0 -6.361109362927032e-15 1.1475906853599738 13.266242503657617 -40.6155320833661 9.782271540410443 -10.69337619512885 38.91891983871765 -7.951386703658792e-16 1.7241821476758432e-34 -2.4848083448933725e-17 -4.723063067017035 6.3862053725201555 13.949577085267563 -4.580280698318178 -5.174251383209462 -9.71694292285695 -7.951386703658792e-16 -8.620910738379216e-34 1.2424041724466862e-16
4.900000095367432 8.600000381469727 50.400001525878906 1.834469333709806 -4.676869869295387 -1.1482083429644032 -1.5949121289750172e-07 -7.06338319867649e-08 -3.135921976005668 100.0445705115523 -0.17638847230052407 -131.55300123106113 1.250630862246045e-06 1.8423451544881062e-06 54.63987770580522 0.0 0.0 6.3611093629270335e-15 -107.0411036729856 -10.4748459202001 128.1840164618176 5.416314468400934e-07 -5.5921645229569095e-06 -51.250943805970294 6.361109362927033e-15 -3.531125038440127e-31 -6.361109362927033e-15 1.4762263466586558 13.448239597720244 -40.64921682423714 9.85899607379451 -10.6563726632487 38.031019820233226 0.0 0.0 -6.460501696722769e-16 -4.217070502840588 6.3922083605178805 14.277109387338003 -4.677770474814189 -5.007840785459112 -9.478485905719811 2.694034605743505e-35 -2.4848083448933725e-17 1.2424041724466862e-16
4.800000190734863 8.600000381469727 50.5 1.6307564137650574 -4.677370499608021 -1.1575337733774254 6.284491997967746e-08 -5.707680229795808e-07 -2.962197421429785 98.3079392537707 -0.10552636674429293 -133.18458436568187 -2.968954092443424e-06 -1.0990040789835418e-06 55.02681943929652 6.3611093629270335e-15 0.0 0.0 -108.62254994881548 -9.878796280027444 127.06835964118731 8.323029417082161e-07 -1.5987261287575909e-06 -51.24026239970991 -6.361109362927035e-15 3.1805546814635176e-15 1.7655625192200634e-31 1.6837660520546534 13.301597045298475 -39.97563516612038 9.653593848425402 -10.483864980341464 36.998010935690516 6.896728590703373e-34 7.951386703658792e-16 -9.93923337957349e-17 -3.8769366278411934 6.540162393559804 14.420184300534606 -4.859792310781097 -5.0985562647846105 -9.652725511147837 2.694034605743505e-35 -2.4848083448933725e-17 1.2424041724466862e-16
4.699999809265137 8.600000381469727 50.599998474121094 1.427001448477718 -4.880231055472547 -1.137628904264883 1.0036462997115672e-07 1.4836281173733481e-07 -3.137428049969738 97.79194111286544 -0.10716670904042525 -134.32902971499186 2.0597765142955725e-06 5.130866836104041e-07 55.05746546220965 6.3611093629270335e-15 6.3611093629270335e-15 -3.531125038440127e-31 -109.34860932044928 -9.724405709069869 126.79353063618431 -2.444931263888057e-06 -9.172721583292567e-07 -51.31060059098223 0.0 -6.361109362927035e-15 0.0 1.8930316464606767 13.507230677990028 -40.02015607210766 9.915623164569672 -10.403669892703055 37.34640300090875 1.551763932908259e-33 -7.951386703658792e-16 2.2363275104040355e-16 -3.675293519274653 6.749033251296901 14.396896600023608 -4.705917169994428 -5.003634233207742 -9.416172460686058 0.0 0.0 -1.143011838650951e-15
4.699999809265137 8.600000381469727 50.70000457763672 1.4270014519337195 -4.88024631448512 -0.8298529432743156 1.0443421524490416e-07 2.634415558209354e-07 -3.4451992222644288 97.46538441960047 -0.16904045325597583 -134.722814495748 5.006029476022111e-06 1.5056303876106898e-06 55.45045602172694 -6.3611093629270335e-15 6.3611093629270335e-15 3.531125038440127e-31 -108.8944188573109 -9.268692635399335 127.27146088076314 -3.7946066674508987e-06 2.4718793762201583e-08 -51.50094340610631 0.0 0.0 -6.3611093629270335e-15 1.9705069298219973 13.194449442196703 -40.31361202149526 9.629733999502461 -9.908781676936268 36.38173361522465 2.672482328897557e-33 7.702905869169454e-16 -3.975693351829396e-16 -3.6416678801673044 6.907785547253569 14.661675807600547 -4.758853333728661 -4.9666219605584985 -9.25383842518303 0.0 0.0 3.975693351829396e-16
4.599999904632568 8.600000381469727 50.80000305175781 1.4270015299418184 -4.880238656152914 -0.834626414929792 -8.993641006282156e-08 2.2725163620823212e-08 -3.270676387449896 97.2486551491741 -0.3356192902084475 -134.39397441374615 -8.34528425199087e-07 5.082742405344028e-06 55.51351331146939 -1.2722218725854064e-14 0.0 0.0 -106.52258016914038 -8.561666932117832 128.5299159498138 2.258459601447962e-06 -3.2343186755179265e-07 -52.05209221862688 0.0 0.0 -6.3611093629270335e-15 2.1261553846305152 13.194983910121127 -41.009516175871994 9.82007697015727 -9.723020572769094 36.91235934467289 7.951386703658792e-16 -7.951386703658792e-16 -1.0933156717530838e-15 -3.5021190515440184 6.910408720920448 14.59951564562826 -4.889630094833322 -4.938649977660276 -9.201007925407566 0.0 0.0 -2.981770013872047e-16
